<svg xmlns="http://www.w3.org/2000/svg" viewBox="0 0 486.28 529.45"><defs><style>.cls-1{fill:#ff5700;}</style></defs><title>Ativo 1</title><g id="Camada_2" data-name="Camada 2"><g id="Camada_1-2" data-name="Camada 1"><path d="M248.85,529.45H237.43c-5-2.28-10.07-4.29-14.87-6.87A366.67,366.67,0,0,1,119.29,440.5c-71.84-82-106.7-179-115.5-286.52C2.57,139.05,1.27,124.12,0,109.19V66c20.22-1.08,40.6-.87,60.61-3.55,27.16-3.65,51.28-16.32,74.92-29.67,20.08-11.33,40.6-21.8,63.26-27.07,9.83-2.28,19.83-3.84,29.75-5.73H259c11.31,2.39,22.76,4.27,33.91,7.26,23.88,6.4,44.84,19.45,66.86,30.1,15.55,7.52,31.2,15.09,47.42,20.88,25.54,9.11,52.42,8.16,79.08,7.78v41.9c-.42,3.94-1,7.88-1.24,11.83-2.18,44.82-7.34,89.17-19.14,132.64-20.32,74.87-54.4,142.16-108.44,198.51C326.06,483.64,290.65,511,248.85,529.45ZM46,109.19a53.55,53.55,0,0,0,0,5.57c3.7,31.9,5.79,64.1,11.51,95.63,11.17,61.63,33.76,119,70.62,170.16,28.39,39.39,62.34,72.88,104.71,97.36,7,4.06,13.08,4.77,20,.16,8.78-5.87,18.26-10.75,26.73-17C334.9,420.16,374.64,366.94,401,303.83c25.56-61.19,35.14-125.91,39.42-191.61.25-3.9-1.26-5-4.8-5.64-15.54-3-31.19-5.76-46.48-9.8C362,89.58,337.43,76.15,312.9,62.84c-30.6-16.6-63-23-97.4-15.74C195,51.42,176.45,60.68,158.26,70.66a306,306,0,0,1-76.6,29.62C69.78,103.1,58,106.2,46,109.19Z"/><path class="cls-1" d="M358.58,234c-.72,27.42-.17,53.92-2.49,80.16-2.1,23.79-15.79,42.7-34.91,56-23.74,16.48-48.92,30.91-73.79,45.7-2.7,1.61-8.24,1-11.16-.72-24.66-14.76-49.38-29.47-73.35-45.31-20.95-13.85-31.34-34.86-35.42-59.22a23.86,23.86,0,0,1,.17-4.21c10.37,0,20.48-.28,30.56.26,1.83.1,4.4,3.31,5.07,5.55,4.55,15.2,14.25,26.25,27.23,34.65,14.55,9.42,29.32,18.5,43.93,27.83,5.39,3.44,10.49,3.6,16,.13,14.81-9.4,29.87-18.42,44.57-28,19.36-12.61,29-30.78,29.17-53.85.05-6.33-.42-12.67-.72-19-.17-3.64-2.11-5-5.8-4.88-8.24.22-16.5.19-24.75,0-3.76-.08-5.41,1.25-5.27,5.12.21,5.5.14,11,.15,16.5,0,8.64-2.36,16.61-9.1,22.16a251.59,251.59,0,0,1-24.11,17.39c-7.73,5-16.26,5-24,0a233.93,233.93,0,0,1-23.64-17c-7.29-6-9.82-14.53-9.14-23.94,1.45-20.18,1.45-20.18-18.68-20.18h-43.8c-8.57,0-8.86,0-9.07-8.8-.27-12.06-.07-24.12,0-36.18q.06-40.31.15-80.6c0-13.92,1.17-15.62,14.41-19.89,34.44-11.1,69.74-17.09,106-16.56a327.39,327.39,0,0,1,102.48,18.23c7.7,2.67,9.78,5.6,9.79,13.57,0,17.78-.15,35.55-.06,53.32,0,3.63-.73,5.56-4.85,5.38-6.55-.28-13.13.11-19.66-.34-8.4-.58-10.21-2.73-10.36-11-.12-6.56.1-13.13-.22-19.68-.5-9.82-3.65-13.32-13.22-15.76a272.87,272.87,0,0,0-136.65.08c-9.59,2.43-11.7,5-11.89,14.93q-.54,28.24-.93,56.48C161,232.15,162.92,234,173,234c5.07,0,10.15,0,15.23,0,8.46-.08,10.06-1.67,10.08-10,0-9.1-.07-18.2.08-27.3.19-12,3.6-15.93,15.43-16,20.91-.08,41.83.32,62.74.88,8.9.25,10.36,2.29,10.35,11.41,0,11.64.11,23.28-.19,34.91-.12,4.74,1.48,6.18,6.2,6.13,19-.23,38.08-.1,57.13-.1Z"/><path d="M255.84,292.45H227.06c1.39-9.91,2.75-19.72,4.13-29.53a51.59,51.59,0,0,1,1-6.49c.44-1.6-.22-2.06-1.4-2.71-14.2-7.87-14.7-28.61-.91-37.1a21.63,21.63,0,1,1,22.4,37l-1.86,1Z"/></g></g></svg>